<svg width="96" height="193" viewBox="0 0 96 193" fill="none" xmlns="http://www.w3.org/2000/svg">
<g filter="url(#filter0_df_31_797)">
<path d="M48.7119 102.724L45.0215 116.815C44.7244 117.949 45.0448 119.156 45.8653 119.994L56.1633 130.508C57.5355 131.909 57.4089 134.186 55.8897 135.426L41.7515 146.968C40.4782 148.007 40.1519 149.819 40.9828 151.237L48.7119 164.43" stroke="#0D9AFF" stroke-width="2.50162"/>
</g>
<g filter="url(#filter1_bi_31_797)">
<path d="M11.8899 37.2549C11.8899 28.3764 11.8899 23.9371 13.6178 20.5459C15.1377 17.5629 17.5629 15.1377 20.5458 13.6178C23.937 11.89 28.3763 11.89 37.2549 11.89H57.8639C66.7425 11.89 71.1818 11.89 74.5729 13.6178C77.5559 15.1377 79.9811 17.5629 81.501 20.5459C83.2289 23.9371 83.2289 28.3764 83.2289 37.2549V57.864C83.2289 66.7425 83.2289 71.1818 81.501 74.573C79.9811 77.5559 77.5559 79.9812 74.5729 81.5011C71.1818 83.2289 66.7425 83.2289 57.8639 83.2289H37.2549C28.3763 83.2289 23.937 83.2289 20.5458 81.5011C17.5629 79.9812 15.1377 77.5559 13.6178 74.573C11.8899 71.1818 11.8899 66.7425 11.8899 57.864V37.2549Z" fill="#0D9AFF" fill-opacity="0.07"/>
<path d="M37.2549 12.3854H57.8639C62.3114 12.3854 65.6172 12.3857 68.2359 12.5997C70.8488 12.8132 72.7339 13.2368 74.348 14.0593C77.2378 15.5316 79.5872 17.8811 81.0596 20.7708C81.882 22.3849 82.3056 24.2701 82.5191 26.883C82.7331 29.5017 82.7335 32.8075 82.7335 37.2549V57.864C82.7335 62.3114 82.7331 65.6172 82.5191 68.2359C82.3056 70.8488 81.882 72.734 81.0596 74.3481C79.5872 77.2378 77.2378 79.5872 74.348 81.0596C72.7339 81.8821 70.8488 82.3057 68.2359 82.5192C65.6172 82.7331 62.3114 82.7335 57.8639 82.7335H37.2549C32.8074 82.7335 29.5016 82.7331 26.8829 82.5192C24.27 82.3057 22.3849 81.8821 20.7708 81.0596C17.881 79.5872 15.5316 77.2378 14.0592 74.3481C13.2368 72.734 12.8131 70.8488 12.5996 68.2359C12.3857 65.6172 12.3853 62.3114 12.3853 57.864V37.2549C12.3853 32.8075 12.3857 29.5017 12.5996 26.883C12.8131 24.2701 13.2368 22.3849 14.0592 20.7708C15.5316 17.8811 17.881 15.5316 20.7708 14.0593C22.3849 13.2368 24.27 12.8132 26.8829 12.5997C29.5016 12.3857 32.8074 12.3854 37.2549 12.3854Z" stroke="url(#paint0_linear_31_797)" stroke-width="0.990819"/>
</g>
<path d="M35.6696 43.5962C40.0473 43.5962 43.5961 40.0473 43.5961 35.6696C43.5961 31.2919 40.0473 27.7431 35.6696 27.7431C31.2918 27.7431 27.743 31.2919 27.743 35.6696C27.743 40.0473 31.2918 43.5962 35.6696 43.5962Z" fill="#0D9AFF"/>
<path d="M11.8899 59.7958C11.8945 63.6452 11.9275 66.579 12.1659 68.9445L25.3716 60.7791C27.2146 59.6395 27.4369 59.552 27.5907 59.5124C27.8492 59.4459 28.1185 59.4323 28.3823 59.4724C28.5394 59.4963 28.7693 59.561 30.7177 60.5092L32.8117 61.5283L33.1675 61.702C34.6514 62.4279 36.1429 63.1574 37.7602 63.3705C39.171 63.5565 40.6053 63.4363 41.9654 63.0183C43.5248 62.5391 44.8741 61.5716 46.2166 60.6089L46.5385 60.3785L56.4691 53.2881C58.6351 51.7415 58.9103 51.6199 59.0905 51.5718C59.3977 51.4898 59.7201 51.483 60.0305 51.5518C60.2126 51.5922 60.4928 51.702 62.7226 53.1551L83.1246 66.4504C83.2281 64.1325 83.2281 61.338 83.2281 57.8638V57.0568L67.0503 46.5142L66.6703 46.2658C65.1023 45.239 63.5289 44.2086 61.7469 43.8133C60.1949 43.4691 58.5828 43.5034 57.0468 43.9133C55.2833 44.3839 53.755 45.4802 52.2321 46.5728L51.8631 46.8371L41.9325 53.9275C40.0335 55.2833 39.7981 55.392 39.6369 55.4415C39.3648 55.5251 39.078 55.5491 38.7958 55.5119C38.6287 55.4899 38.3784 55.422 36.2803 54.4009L34.1863 53.3819L33.8567 53.221C32.475 52.5453 31.0853 51.8658 29.5739 51.6359C28.2546 51.4353 26.9084 51.5033 25.616 51.8357C24.1355 52.2166 22.8213 53.0326 21.5146 53.844L21.2029 54.0372L11.8899 59.7958Z" fill="#0D9AFF"/>
<defs>
<filter id="filter0_df_31_797" x="11.8397" y="74.9724" width="73.9614" height="117.525" filterUnits="userSpaceOnUse" color-interpolation-filters="sRGB">
<feFlood flood-opacity="0" result="BackgroundImageFix"/>
<feColorMatrix in="SourceAlpha" type="matrix" values="0 0 0 0 0 0 0 0 0 0 0 0 0 0 0 0 0 0 127 0" result="hardAlpha"/>
<feOffset/>
<feGaussianBlur stdDeviation="13.7172"/>
<feComposite in2="hardAlpha" operator="out"/>
<feColorMatrix type="matrix" values="0 0 0 0 0.0509804 0 0 0 0 0.603922 0 0 0 0 1 0 0 0 0.8 0"/>
<feBlend mode="normal" in2="BackgroundImageFix" result="effect1_dropShadow_31_797"/>
<feBlend mode="normal" in="SourceGraphic" in2="effect1_dropShadow_31_797" result="shape"/>
<feGaussianBlur stdDeviation="2.50162" result="effect2_foregroundBlur_31_797"/>
</filter>
<filter id="filter1_bi_31_797" x="-2.9724" y="-2.97234" width="101.063" height="101.064" filterUnits="userSpaceOnUse" color-interpolation-filters="sRGB">
<feFlood flood-opacity="0" result="BackgroundImageFix"/>
<feGaussianBlur in="BackgroundImageFix" stdDeviation="7.43114"/>
<feComposite in2="SourceAlpha" operator="in" result="effect1_backgroundBlur_31_797"/>
<feBlend mode="normal" in="SourceGraphic" in2="effect1_backgroundBlur_31_797" result="shape"/>
<feColorMatrix in="SourceAlpha" type="matrix" values="0 0 0 0 0 0 0 0 0 0 0 0 0 0 0 0 0 0 127 0" result="hardAlpha"/>
<feOffset/>
<feGaussianBlur stdDeviation="7.43114"/>
<feComposite in2="hardAlpha" operator="arithmetic" k2="-1" k3="1"/>
<feColorMatrix type="matrix" values="0 0 0 0 0.0941176 0 0 0 0 0.521569 0 0 0 0 0.94902 0 0 0 0.1 0"/>
<feBlend mode="normal" in2="shape" result="effect2_innerShadow_31_797"/>
</filter>
<linearGradient id="paint0_linear_31_797" x1="16.3486" y1="13.0406" x2="64.646" y2="94.5991" gradientUnits="userSpaceOnUse">
<stop stop-color="#0D9AFF" stop-opacity="0.1"/>
<stop offset="1" stop-color="#0D9AFF" stop-opacity="0"/>
</linearGradient>
</defs>
</svg>
