<svg width="1032" height="128" viewBox="0 0 1032 128" fill="none" xmlns="http://www.w3.org/2000/svg">
<g clip-path="url(#clip0_1_114)">
<path d="M166.308 119.615L136.032 0.205468C135.236 -2.90317 133.55 -5.71195 131.181 -7.8768C128.812 -10.0416 125.863 -11.4686 122.695 -11.9828L85.6995 -18.0564C81.6211 -18.7123 77.4444 -17.828 73.9819 -15.5753C70.5194 -13.3225 68.0185 -9.86252 66.9657 -5.86813L66.7502 -4.99608C66.6107 -4.44204 66.5885 -3.86497 66.6848 -3.30183C66.7812 -2.73869 66.9941 -2.20188 67.3099 -1.72576C67.6257 -1.24964 68.0375 -0.84471 68.5188 -0.53689C69.0001 -0.22907 69.5404 -0.0251412 70.1051 0.0618361C78.5942 1.30773 86.9691 3.23591 95.1484 5.82765C97.1932 6.44462 98.9268 7.81624 99.9975 9.66431C101.068 11.5124 101.396 13.6985 100.914 15.7793C100.637 16.8637 100.142 17.8799 99.4576 18.7656C98.7735 19.6514 97.9156 20.3878 96.9364 20.9298C95.9573 21.4717 94.8776 21.8077 93.7638 21.917C92.6501 22.0264 91.5257 21.9068 90.4599 21.5657C60.1106 12.2581 27.6737 12.2224 -2.69607 21.4631C-4.75134 22.1541 -6.99382 22.027 -8.9578 21.108C-10.9218 20.1891 -12.4563 18.549 -13.2428 16.5283C-13.6166 15.4914 -13.7777 14.3898 -13.7165 13.2893C-13.6554 12.1888 -13.3732 11.1119 -12.8868 10.1228C-12.4004 9.13375 -11.7197 8.25278 -10.8855 7.53246C-10.0512 6.81214 -9.08042 6.26724 -8.03099 5.93025C0.250456 3.29243 8.732 1.32987 17.3304 0.0618361C17.8951 -0.0251412 18.4354 -0.22907 18.9167 -0.53689C19.398 -0.84471 19.8097 -1.24964 20.1255 -1.72576C20.4413 -2.20188 20.6542 -2.73869 20.7506 -3.30183C20.847 -3.86497 20.8247 -4.44204 20.6852 -4.99608L20.4698 -5.86813C19.4166 -9.86593 16.9122 -13.3282 13.4449 -15.5796C9.97758 -17.8311 5.79596 -18.7104 1.7155 -18.0461L-35.3006 -11.9725C-38.467 -11.4591 -41.415 -10.0337 -43.7838 -7.87076C-46.1526 -5.70785 -47.8395 -2.90128 -48.6379 0.205468L-78.9136 119.615C-79.8629 123.369 -79.4498 127.337 -77.7477 130.815C-76.0456 134.292 -73.1651 137.053 -69.6185 138.606L-0.880143 169.086C1.18673 170.005 3.41968 170.492 5.68148 170.516C7.94327 170.54 10.1861 170.102 12.2722 169.227C14.3583 168.353 16.2435 167.061 17.812 165.431C19.3805 163.802 20.5992 161.868 21.3931 159.75L24.9737 150.055C25.1871 149.474 25.2664 148.853 25.2057 148.237C25.145 147.622 24.9458 147.028 24.6232 146.5C24.3005 145.972 23.8627 145.524 23.3425 145.189C22.8222 144.854 22.233 144.641 21.6189 144.566C11.6522 143.359 1.81905 141.23 -7.75399 138.205C-9.79035 137.587 -11.5165 136.219 -12.5845 134.378C-13.6525 132.537 -13.9831 130.36 -13.5095 128.285C-13.2351 127.197 -12.7407 126.178 -12.057 125.289C-11.3732 124.4 -10.5145 123.661 -9.5339 123.116C-8.55331 122.572 -7.4716 122.235 -6.35555 122.125C-5.23949 122.015 -4.11276 122.135 -3.04489 122.478C27.4183 131.807 59.9762 131.807 90.4393 122.478C91.5059 122.137 92.6309 122.018 93.7452 122.128C94.8596 122.238 95.9396 122.574 96.9189 123.117C97.8981 123.66 98.7559 124.398 99.4395 125.285C100.123 126.172 100.618 127.189 100.894 128.274C101.373 130.351 101.045 132.532 99.976 134.376C98.9074 136.22 97.1781 137.589 95.1382 138.205C85.5689 141.231 75.7391 143.361 65.7756 144.566C65.1615 144.641 64.5722 144.854 64.052 145.189C63.5317 145.524 63.0939 145.972 62.7712 146.5C62.4486 147.028 62.2495 147.622 62.1888 148.237C62.1281 148.853 62.2074 149.474 62.4207 150.055L66.0013 159.75C66.7965 161.867 68.0158 163.8 69.5846 165.429C71.1533 167.058 73.0384 168.349 75.1241 169.223C77.2097 170.097 79.452 170.536 81.7134 170.513C83.9748 170.489 86.2075 170.004 88.2746 169.086L157.013 138.606C160.56 137.053 163.44 134.292 165.142 130.815C166.844 127.337 167.257 123.369 166.308 119.615ZM6.76315 96.6444C4.3282 96.6444 1.94793 95.9224 -0.0766661 94.5696C-2.10126 93.2168 -3.67924 91.294 -4.61106 89.0444C-5.54287 86.7948 -5.78668 84.3194 -5.31164 81.9312C-4.83661 79.5431 -3.66407 77.3494 -1.94229 75.6276C-0.220517 73.9058 1.97315 72.7333 4.36132 72.2583C6.74949 71.7832 9.2249 72.027 11.4745 72.9589C13.7241 73.8907 15.6469 75.4686 16.9997 77.4932C18.3525 79.5178 19.0745 81.8981 19.0745 84.3331C19.0745 87.5982 17.7774 90.7297 15.4686 93.0385C13.1598 95.3473 10.0283 96.6444 6.76315 96.6444ZM80.6313 96.6444C78.1963 96.6444 75.8161 95.9224 73.7915 94.5696C71.7669 93.2168 70.1889 91.294 69.2571 89.0444C68.3253 86.7948 68.0815 84.3194 68.5565 81.9312C69.0315 79.5431 70.2041 77.3494 71.9258 75.6276C73.6476 73.9058 75.8413 72.7333 78.2295 72.2583C80.6176 71.7832 83.093 72.027 85.3426 72.9589C87.5922 73.8907 89.515 75.4686 90.8678 77.4932C92.2206 79.5178 92.9426 81.8981 92.9426 84.3331C92.9426 87.5982 91.6455 90.7297 89.3367 93.0385C87.0279 95.3473 83.8965 96.6444 80.6313 96.6444Z" fill="url(#paint0_linear_1_114)"/>
<path d="M975.968 119.775L949.832 16.6921C949.144 14.0085 947.689 11.5838 945.644 9.71493C943.599 7.84608 941.053 6.61426 938.319 6.17036L906.381 0.927199C902.861 0.36092 899.255 1.12437 896.266 3.06908C893.277 5.01378 891.118 8.00071 890.209 11.449L890.023 12.2018C889.903 12.6801 889.883 13.1782 889.967 13.6644C890.05 14.1505 890.234 14.6139 890.506 15.0249C890.779 15.436 891.134 15.7855 891.55 16.0513C891.965 16.317 892.432 16.493 892.919 16.5681C900.248 17.6437 907.477 19.3082 914.538 21.5456C916.304 22.0782 917.8 23.2623 918.724 24.8577C919.649 26.453 919.932 28.3403 919.516 30.1366C919.277 31.0726 918.849 31.95 918.258 32.7146C917.668 33.4792 916.927 34.1149 916.082 34.5828C915.237 35.0506 914.305 35.3407 913.343 35.4351C912.382 35.5295 911.411 35.4263 910.491 35.1317C884.291 27.0968 856.289 27.066 830.072 35.0432C828.298 35.6397 826.362 35.53 824.666 34.7367C822.971 33.9434 821.646 32.5275 820.967 30.7831C820.645 29.888 820.506 28.9371 820.558 27.987C820.611 27.037 820.855 26.1073 821.275 25.2535C821.695 24.3996 822.282 23.6391 823.002 23.0173C823.723 22.3955 824.561 21.9251 825.467 21.6342C832.616 19.357 839.938 17.6628 847.36 16.5681C847.848 16.493 848.314 16.317 848.73 16.0513C849.145 15.7855 849.501 15.436 849.773 15.0249C850.046 14.6139 850.23 14.1505 850.313 13.6644C850.396 13.1782 850.377 12.6801 850.256 12.2018L850.07 11.449C849.161 7.99777 846.999 5.00893 844.006 3.06529C841.013 1.12165 837.403 0.362565 833.88 0.936054L801.925 6.17922C799.192 6.62246 796.647 7.85297 794.602 9.72014C792.557 11.5873 791.101 14.0102 790.412 16.6921L764.276 119.775C763.456 123.015 763.813 126.441 765.282 129.443C766.752 132.445 769.238 134.828 772.3 136.169L831.64 162.482C833.424 163.275 835.352 163.695 837.304 163.716C839.257 163.737 841.193 163.359 842.994 162.604C844.795 161.849 846.422 160.734 847.776 159.327C849.13 157.92 850.182 156.251 850.868 154.423L853.959 146.053C854.143 145.552 854.211 145.015 854.159 144.484C854.106 143.952 853.935 143.439 853.656 142.984C853.377 142.528 852.999 142.141 852.55 141.852C852.101 141.563 851.593 141.379 851.062 141.315C842.458 140.273 833.97 138.435 825.706 135.823C823.948 135.289 822.458 134.109 821.536 132.519C820.614 130.93 820.328 129.05 820.737 127.259C820.974 126.32 821.401 125.44 821.991 124.673C822.581 123.906 823.323 123.267 824.169 122.798C825.016 122.328 825.949 122.037 826.913 121.942C827.876 121.847 828.849 121.951 829.771 122.246C856.069 130.3 884.175 130.3 910.473 122.246C911.394 121.952 912.365 121.849 913.327 121.944C914.289 122.039 915.221 122.33 916.067 122.798C916.912 123.267 917.653 123.904 918.243 124.669C918.833 125.435 919.26 126.313 919.498 127.25C919.912 129.043 919.628 130.926 918.706 132.517C917.783 134.109 916.291 135.291 914.529 135.823C906.269 138.435 897.783 140.274 889.182 141.315C888.651 141.379 888.143 141.563 887.694 141.852C887.245 142.141 886.867 142.528 886.588 142.984C886.31 143.439 886.138 143.952 886.085 144.484C886.033 145.015 886.101 145.552 886.286 146.053L889.376 154.423C890.063 156.25 891.116 157.918 892.47 159.324C893.824 160.731 895.451 161.845 897.252 162.6C899.052 163.355 900.988 163.734 902.94 163.713C904.892 163.693 906.82 163.274 908.604 162.482L967.944 136.169C971.006 134.828 973.493 132.445 974.962 129.443C976.431 126.441 976.788 123.015 975.968 119.775ZM838.238 99.945C836.136 99.945 834.081 99.3217 832.333 98.1539C830.586 96.9861 829.223 95.3262 828.419 93.3842C827.615 91.4421 827.404 89.3052 827.814 87.2436C828.224 85.1819 829.236 83.2882 830.723 81.8019C832.209 80.3155 834.103 79.3033 836.165 78.8932C838.226 78.4831 840.363 78.6936 842.305 79.498C844.247 80.3024 845.907 81.6646 847.075 83.4124C848.243 85.1602 848.866 87.215 848.866 89.317C848.866 92.1357 847.746 94.839 845.753 96.8322C843.76 98.8253 841.057 99.945 838.238 99.945ZM902.006 99.945C899.904 99.945 897.849 99.3217 896.102 98.1539C894.354 96.9861 892.992 95.3262 892.187 93.3842C891.383 91.4421 891.172 89.3052 891.582 87.2436C891.992 85.1819 893.005 83.2882 894.491 81.8019C895.977 80.3155 897.871 79.3033 899.933 78.8932C901.994 78.4831 904.131 78.6936 906.073 79.498C908.015 80.3024 909.675 81.6646 910.843 83.4124C912.011 85.1602 912.634 87.215 912.634 89.317C912.634 92.1357 911.514 94.839 909.521 96.8322C907.528 98.8253 904.825 99.945 902.006 99.945Z" fill="url(#paint1_linear_1_114)"/>
<path d="M265.672 91.657L254.86 49.0106C254.575 47.9004 253.973 46.8973 253.127 46.1241C252.281 45.3509 251.228 44.8413 250.096 44.6577L236.884 42.4885C235.427 42.2543 233.935 42.5701 232.699 43.3747C231.462 44.1792 230.569 45.4149 230.193 46.8415L230.116 47.1529C230.066 47.3508 230.058 47.5569 230.093 47.758C230.127 47.9591 230.203 48.1509 230.316 48.3209C230.429 48.491 230.576 48.6356 230.748 48.7455C230.92 48.8554 231.113 48.9283 231.314 48.9593C234.346 49.4043 237.337 50.0929 240.258 51.0186C240.989 51.2389 241.608 51.7288 241.99 52.3888C242.373 53.0488 242.49 53.8296 242.318 54.5727C242.219 54.96 242.042 55.3229 241.797 55.6393C241.553 55.9556 241.247 56.2186 240.897 56.4122C240.547 56.6057 240.162 56.7257 239.764 56.7648C239.366 56.8038 238.965 56.7611 238.584 56.6393C227.745 53.3151 216.16 53.3024 205.314 56.6026C204.58 56.8494 203.779 56.804 203.078 56.4758C202.376 56.1476 201.828 55.5619 201.547 54.8402C201.414 54.4699 201.356 54.0765 201.378 53.6834C201.4 53.2904 201.501 52.9058 201.674 52.5525C201.848 52.1993 202.091 51.8847 202.389 51.6274C202.687 51.3702 203.034 51.1756 203.409 51.0552C206.366 50.1131 209.395 49.4122 212.466 48.9593C212.668 48.9283 212.861 48.8554 213.033 48.7455C213.205 48.6356 213.352 48.491 213.464 48.3209C213.577 48.1509 213.653 47.9591 213.688 47.758C213.722 47.5569 213.714 47.3508 213.664 47.1529L213.587 46.8415C213.211 45.4137 212.317 44.1772 211.079 43.3731C209.84 42.569 208.347 42.255 206.889 42.4922L193.669 44.6614C192.539 44.8447 191.486 45.3538 190.64 46.1263C189.794 46.8987 189.191 47.9011 188.906 49.0106L178.093 91.657C177.754 92.9975 177.902 94.4148 178.51 95.6568C179.118 96.8987 180.146 97.8847 181.413 98.4393L205.962 109.325C206.701 109.653 207.498 109.827 208.306 109.836C209.114 109.844 209.915 109.688 210.66 109.376C211.405 109.063 212.078 108.602 212.638 108.02C213.198 107.438 213.634 106.747 213.917 105.991L215.196 102.528C215.272 102.321 215.3 102.099 215.279 101.879C215.257 101.659 215.186 101.447 215.071 101.259C214.956 101.07 214.799 100.91 214.613 100.79C214.428 100.671 214.217 100.595 213.998 100.568C210.438 100.137 206.926 99.3766 203.507 98.2964C202.78 98.0753 202.164 97.5868 201.782 96.9294C201.401 96.2719 201.283 95.4942 201.452 94.7532C201.55 94.3648 201.727 94.0007 201.971 93.6833C202.215 93.3658 202.522 93.1018 202.872 92.9074C203.222 92.7131 203.608 92.5926 204.007 92.5534C204.406 92.5141 204.808 92.557 205.189 92.6793C216.069 96.0111 227.697 96.0111 238.577 92.6793C238.957 92.5575 239.359 92.515 239.757 92.5542C240.155 92.5935 240.541 92.7138 240.891 92.9078C241.24 93.1017 241.547 93.3651 241.791 93.6818C242.035 93.9986 242.212 94.3619 242.31 94.7495C242.481 95.4912 242.364 96.2701 241.982 96.9286C241.601 97.5872 240.983 98.0761 240.255 98.2964C236.837 99.3769 233.326 100.137 229.768 100.568C229.549 100.595 229.338 100.671 229.152 100.79C228.967 100.91 228.81 101.07 228.695 101.259C228.58 101.447 228.509 101.659 228.487 101.879C228.465 102.099 228.494 102.321 228.57 102.528L229.849 105.991C230.133 106.747 230.568 107.437 231.128 108.019C231.689 108.601 232.362 109.062 233.107 109.374C233.852 109.686 234.652 109.843 235.46 109.835C236.268 109.826 237.065 109.653 237.803 109.325L262.353 98.4393C263.619 97.8847 264.648 96.8987 265.256 95.6568C265.864 94.4148 266.012 92.9975 265.672 91.657ZM208.692 83.4531C207.823 83.4531 206.972 83.1952 206.249 82.7121C205.526 82.229 204.963 81.5423 204.63 80.7388C204.297 79.9354 204.21 79.0513 204.38 78.1984C204.549 77.3455 204.968 76.562 205.583 75.9471C206.198 75.3322 206.981 74.9134 207.834 74.7438C208.687 74.5741 209.571 74.6612 210.375 74.994C211.178 75.3268 211.865 75.8903 212.348 76.6134C212.831 77.3365 213.089 78.1866 213.089 79.0562C213.089 80.2223 212.626 81.3407 211.801 82.1653C210.977 82.9899 209.858 83.4531 208.692 83.4531ZM235.074 83.4531C234.204 83.4531 233.354 83.1952 232.631 82.7121C231.908 82.229 231.344 81.5423 231.011 80.7388C230.679 79.9354 230.592 79.0513 230.761 78.1984C230.931 77.3455 231.35 76.562 231.965 75.9471C232.579 75.3322 233.363 74.9134 234.216 74.7438C235.069 74.5741 235.953 74.6612 236.756 74.994C237.56 75.3268 238.246 75.8903 238.73 76.6134C239.213 77.3365 239.471 78.1866 239.471 79.0562C239.471 80.2223 239.007 81.3407 238.183 82.1653C237.358 82.9899 236.24 83.4531 235.074 83.4531Z" fill="url(#paint2_linear_1_114)"/>
<path d="M1061.75 95.6398L1052.41 58.8244C1052.17 57.866 1051.65 57 1050.92 56.3325C1050.19 55.6651 1049.28 55.2251 1048.3 55.0666L1036.89 53.1941C1035.64 52.9918 1034.35 53.2645 1033.28 53.959C1032.21 54.6535 1031.44 55.7203 1031.12 56.9518L1031.05 57.2207C1031.01 57.3915 1031 57.5694 1031.03 57.743C1031.06 57.9167 1031.13 58.0822 1031.22 58.229C1031.32 58.3758 1031.45 58.5006 1031.6 58.5955C1031.75 58.6904 1031.91 58.7533 1032.09 58.7801C1034.7 59.1642 1037.29 59.7587 1039.81 60.5578C1040.44 60.748 1040.97 61.1709 1041.3 61.7406C1041.63 62.3104 1041.73 62.9844 1041.59 63.626C1041.5 63.9603 1041.35 64.2736 1041.14 64.5467C1040.93 64.8198 1040.66 65.0468 1040.36 65.2139C1040.06 65.381 1039.72 65.4846 1039.38 65.5183C1039.04 65.552 1038.69 65.5151 1038.36 65.41C1029 62.5403 1019 62.5293 1009.64 65.3783C1009.01 65.5914 1008.32 65.5522 1007.71 65.2689C1007.1 64.9855 1006.63 64.4799 1006.39 63.8569C1006.27 63.5372 1006.22 63.1976 1006.24 62.8583C1006.26 62.519 1006.35 62.187 1006.5 61.882C1006.65 61.5771 1006.86 61.3055 1007.12 61.0834C1007.37 60.8613 1007.67 60.6933 1008 60.5894C1010.55 59.7761 1013.16 59.171 1015.82 58.7801C1015.99 58.7533 1016.16 58.6904 1016.3 58.5955C1016.45 58.5006 1016.58 58.3758 1016.68 58.229C1016.77 58.0822 1016.84 57.9167 1016.87 57.743C1016.9 57.5694 1016.89 57.3915 1016.85 57.2207L1016.78 56.9518C1016.46 55.7193 1015.69 54.6518 1014.62 53.9577C1013.55 53.2635 1012.26 52.9924 1011 53.1972L999.589 55.0698C998.612 55.2281 997.703 55.6675 996.973 56.3344C996.243 57.0012 995.723 57.8665 995.477 58.8244L986.142 95.6398C985.85 96.797 985.977 98.0205 986.502 99.0926C987.026 100.165 987.915 101.016 989.008 101.495L1010.2 110.892C1010.84 111.176 1011.53 111.326 1012.22 111.333C1012.92 111.34 1013.61 111.205 1014.26 110.936C1014.9 110.666 1015.48 110.268 1015.96 109.765C1016.45 109.263 1016.82 108.667 1017.07 108.014L1018.17 105.025C1018.24 104.846 1018.26 104.654 1018.24 104.464C1018.22 104.274 1018.16 104.091 1018.06 103.929C1017.96 103.766 1017.83 103.628 1017.67 103.524C1017.51 103.421 1017.33 103.356 1017.14 103.332C1014.06 102.96 1011.03 102.304 1008.08 101.371C1007.45 101.18 1006.92 100.759 1006.59 100.191C1006.26 99.6236 1006.16 98.9523 1006.31 98.3126C1006.39 97.9773 1006.54 97.663 1006.75 97.3889C1006.97 97.1149 1007.23 96.887 1007.53 96.7192C1007.84 96.5514 1008.17 96.4474 1008.51 96.4135C1008.86 96.3797 1009.2 96.4167 1009.53 96.5223C1018.93 99.3985 1028.96 99.3985 1038.36 96.5223C1038.68 96.4171 1039.03 96.3804 1039.37 96.4143C1039.72 96.4482 1040.05 96.5521 1040.35 96.7195C1040.66 96.8869 1040.92 97.1143 1041.13 97.3877C1041.34 97.6612 1041.49 97.9748 1041.58 98.3094C1041.73 98.9497 1041.63 99.6221 1041.3 100.191C1040.97 100.759 1040.43 101.181 1039.8 101.371C1036.85 102.304 1033.82 102.961 1030.75 103.332C1030.56 103.356 1030.38 103.421 1030.22 103.524C1030.06 103.628 1029.92 103.766 1029.83 103.929C1029.73 104.091 1029.66 104.274 1029.65 104.464C1029.63 104.654 1029.65 104.846 1029.72 105.025L1030.82 108.014C1031.07 108.667 1031.44 109.262 1031.93 109.764C1032.41 110.267 1032.99 110.665 1033.63 110.934C1034.28 111.204 1034.97 111.339 1035.67 111.332C1036.36 111.325 1037.05 111.175 1037.69 110.892L1058.88 101.495C1059.97 101.016 1060.86 100.165 1061.39 99.0926C1061.91 98.0205 1062.04 96.797 1061.75 95.6398ZM1012.56 88.5576C1011.81 88.5576 1011.07 88.3349 1010.45 87.9179C1009.82 87.5008 1009.34 86.908 1009.05 86.2144C1008.76 85.5208 1008.69 84.7576 1008.83 84.0213C1008.98 83.285 1009.34 82.6087 1009.87 82.0779C1010.4 81.547 1011.08 81.1855 1011.82 81.039C1012.55 80.8926 1013.32 80.9678 1014.01 81.255C1014.7 81.5423 1015.3 82.0288 1015.71 82.653C1016.13 83.2773 1016.35 84.0111 1016.35 84.7618C1016.35 85.7685 1015.95 86.734 1015.24 87.4458C1014.53 88.1577 1013.56 88.5576 1012.56 88.5576ZM1035.33 88.5576C1034.58 88.5576 1033.85 88.3349 1033.22 87.9179C1032.6 87.5008 1032.11 86.908 1031.82 86.2144C1031.54 85.5208 1031.46 84.7576 1031.61 84.0213C1031.76 83.285 1032.12 82.6087 1032.65 82.0779C1033.18 81.547 1033.85 81.1855 1034.59 81.039C1035.33 80.8926 1036.09 80.9678 1036.78 81.255C1037.48 81.5423 1038.07 82.0288 1038.49 82.653C1038.9 83.2773 1039.13 84.0111 1039.13 84.7618C1039.13 85.7685 1038.73 86.734 1038.02 87.4458C1037.3 88.1577 1036.34 88.5576 1035.33 88.5576Z" fill="url(#paint3_linear_1_114)"/>
</g>
<defs>
<linearGradient id="paint0_linear_1_114" x1="-12.7668" y1="-3.88333" x2="43.6972" y2="170.517" gradientUnits="userSpaceOnUse">
<stop stop-color="#262629"/>
<stop offset="1" stop-color="#2B2B2E"/>
</linearGradient>
<linearGradient id="paint1_linear_1_114" x1="821.378" y1="13.1624" x2="870.122" y2="163.717" gradientUnits="userSpaceOnUse">
<stop stop-color="#262629"/>
<stop offset="1" stop-color="#2B2B2E"/>
</linearGradient>
<linearGradient id="paint2_linear_1_114" x1="201.717" y1="47.5503" x2="221.883" y2="109.836" gradientUnits="userSpaceOnUse">
<stop stop-color="#262629"/>
<stop offset="1" stop-color="#2B2B2E"/>
</linearGradient>
<linearGradient id="paint3_linear_1_114" x1="1006.54" y1="57.5638" x2="1023.94" y2="111.333" gradientUnits="userSpaceOnUse">
<stop stop-color="#262629"/>
<stop offset="1" stop-color="#2B2B2E"/>
</linearGradient>
<clipPath id="clip0_1_114">
<rect width="1031.16" height="126.813" fill="white" transform="translate(0.192139 0.744873)"/>
</clipPath>
</defs>
</svg>
