<svg width="258" height="125" viewBox="0 0 258 125" fill="none" xmlns="http://www.w3.org/2000/svg">
<g clip-path="url(#clip0_24_788)">
<path d="M45.5679 13.7647L24.5279 -8.29952C23.9785 -8.87295 23.2968 -9.28047 22.5662 -9.47217C21.8356 -9.66387 21.0879 -9.63143 20.4147 -9.37881L12.5432 -6.44299C11.6771 -6.11644 10.9888 -5.44933 10.6119 -4.5714C10.2351 -3.69348 10.1967 -2.6675 10.5043 -1.69301L10.5742 -1.48191C10.6181 -1.34749 10.6875 -1.22156 10.7778 -1.1122C10.8681 -1.00283 10.9774 -0.91243 11.0987 -0.846783C11.2201 -0.781135 11.3507 -0.741688 11.4823 -0.730966C11.6139 -0.720244 11.7435 -0.738485 11.863 -0.784519C13.6503 -1.48978 15.5028 -2.03609 17.4025 -2.41814C17.8734 -2.52027 18.3809 -2.42544 18.8221 -2.15288C19.2632 -1.88032 19.6049 -1.45044 19.778 -0.950433C19.8632 -0.686916 19.8977 -0.412907 19.8795 -0.145249C19.8612 0.122409 19.7906 0.378061 19.6719 0.605996C19.5532 0.833931 19.389 1.02933 19.1893 1.18019C18.9896 1.33105 18.7586 1.43417 18.5107 1.48323C11.5015 2.96693 5.27472 6.67186 0.627776 12.1235C0.321673 12.5064 -0.124713 12.7359 -0.618681 12.7642C-1.11265 12.7926 -1.61624 12.6175 -2.02487 12.2755C-2.22884 12.0966 -2.40027 11.8796 -2.52892 11.6373C-2.65757 11.395 -2.74081 11.1325 -2.77368 10.8653C-2.80654 10.5982 -2.78836 10.3319 -2.72021 10.0825C-2.65206 9.83297 -2.53535 9.60535 -2.37703 9.4132C-1.12492 7.90138 0.25172 6.51104 1.73937 5.25581C1.83659 5.17258 1.91422 5.06715 1.96728 4.94625C2.02035 4.82535 2.04767 4.69165 2.04752 4.55371C2.04736 4.41577 2.01973 4.27664 1.96638 4.14521C1.91303 4.01378 1.83514 3.89295 1.73771 3.79046L1.58514 3.62868C0.873144 2.8945 -0.0489262 2.44093 -1.00126 2.35643C-1.95359 2.27192 -2.86791 2.56253 -3.5659 3.17159L-9.89182 8.70679C-10.4337 9.17897 -10.8174 9.82113 -10.9959 10.5547C-11.1744 11.2882 -11.1399 12.0813 -10.8968 12.8369L-1.47212 41.8316C-1.17542 42.7427 -0.589935 43.5439 0.180154 44.0925C0.950242 44.6411 1.85498 44.9017 2.73339 44.8278L19.8075 43.477C20.3212 43.4369 20.8116 43.2854 21.2486 43.0317C21.6855 42.778 22.0598 42.4275 22.3484 42.0018C22.6371 41.5761 22.8339 41.0841 22.9269 40.5562C23.0199 40.0282 23.0071 39.4754 22.8892 38.9317L22.3393 36.4491C22.3061 36.3005 22.242 36.1586 22.1519 36.0339C22.0617 35.9092 21.9477 35.805 21.8185 35.7291C21.6892 35.6531 21.5481 35.6074 21.4056 35.5954C21.2631 35.5834 21.1229 35.6053 20.9955 35.6596C18.9297 36.5423 16.7718 37.2125 14.5496 37.6615C14.08 37.7623 13.5745 37.6674 13.1347 37.3961C12.695 37.1247 12.3539 36.697 12.18 36.1992C12.0939 35.9353 12.0587 35.6608 12.0765 35.3925C12.0943 35.1242 12.1647 34.8678 12.2834 34.6393C12.4021 34.4107 12.5665 34.2147 12.7666 34.0635C12.9667 33.9123 13.1981 33.809 13.4467 33.76C20.4804 32.2679 26.7259 28.5415 31.3794 23.0603C31.5405 22.8653 31.7411 22.711 31.9689 22.607C32.1967 22.503 32.4469 22.4514 32.704 22.4554C32.9611 22.4594 33.2197 22.5189 33.464 22.6303C33.7083 22.7417 33.933 22.9025 34.1243 23.103C34.4811 23.4922 34.6964 23.996 34.7266 24.5125C34.7568 25.029 34.5997 25.5196 34.2871 25.885C32.8374 27.6271 31.2234 29.2075 29.466 30.6056C29.3577 30.6919 29.2719 30.8049 29.2148 30.936C29.1577 31.0671 29.1308 31.213 29.1363 31.3628C29.1417 31.5126 29.1793 31.6624 29.2462 31.801C29.3131 31.9396 29.4076 32.0634 29.5226 32.1631L31.4462 33.8261C31.8688 34.1877 32.3492 34.4612 32.8579 34.63C33.3666 34.7987 33.8929 34.859 34.4046 34.8071C34.9162 34.7553 35.4023 34.5925 35.8331 34.3287C36.2639 34.0648 36.6303 33.7055 36.9098 33.2728L46.2074 18.8887C46.6896 18.1507 46.89 17.2308 46.7729 16.2925C46.6558 15.3543 46.2288 14.4585 45.5679 13.7647ZM12.0327 27.1143C11.5656 27.393 11.0169 27.5111 10.456 27.4536C9.89505 27.3961 9.34707 27.1656 8.88135 26.7913C8.41564 26.417 8.0531 25.9157 7.83958 25.3507C7.62606 24.7858 7.57115 24.1826 7.6818 23.6174C7.79245 23.0522 8.06368 22.5505 8.46119 22.1756C8.85871 21.8007 9.36466 21.5695 9.91506 21.5112C10.4655 21.4529 11.0356 21.5702 11.5534 21.8483C12.0711 22.1263 12.5133 22.5525 12.8239 23.0731C13.2404 23.7712 13.391 24.5891 13.2427 25.347C13.0943 26.1049 12.6591 26.7406 12.0327 27.1143ZM26.2026 18.6598C25.7355 18.9384 25.1868 19.0565 24.6259 18.999C24.0649 18.9415 23.517 18.711 23.0512 18.3367C22.5855 17.9624 22.223 17.4611 22.0095 16.8961C21.7959 16.3312 21.741 15.728 21.8517 15.1628C21.9623 14.5976 22.2336 14.0959 22.6311 13.721C23.0286 13.3461 23.5345 13.1149 24.0849 13.0566C24.6353 12.9984 25.2055 13.1157 25.7232 13.3937C26.241 13.6717 26.6832 14.0979 26.9938 14.6185C27.4103 15.3166 27.5609 16.1346 27.4125 16.8924C27.2642 17.6503 26.8289 18.286 26.2026 18.6598Z" fill="url(#paint0_linear_24_788)"/>
<path d="M264.725 102.536L243.685 80.4718C243.135 79.8984 242.454 79.4909 241.723 79.2992C240.992 79.1075 240.245 79.1399 239.571 79.3926L231.7 82.3284C230.834 82.6549 230.145 83.322 229.769 84.2C229.392 85.0779 229.353 86.1039 229.661 87.0784L229.731 87.2895C229.775 87.4239 229.844 87.5498 229.935 87.6592C230.025 87.7685 230.134 87.8589 230.255 87.9246C230.377 87.9902 230.507 88.0297 230.639 88.0404C230.771 88.0511 230.9 88.0329 231.02 87.9868C232.807 87.2816 234.66 86.7353 236.559 86.3532C237.03 86.2511 237.538 86.3459 237.979 86.6185C238.42 86.891 238.762 87.3209 238.935 87.8209C239.02 88.0844 239.054 88.3585 239.036 88.6261C239.018 88.8938 238.947 89.1494 238.829 89.3774C238.71 89.6053 238.546 89.8007 238.346 89.9516C238.146 90.1024 237.915 90.2055 237.667 90.2546C230.658 91.7383 224.431 95.4432 219.785 100.895C219.478 101.278 219.032 101.507 218.538 101.536C218.044 101.564 217.54 101.389 217.132 101.047C216.928 100.868 216.756 100.651 216.628 100.409C216.499 100.166 216.416 99.9038 216.383 99.6367C216.35 99.3696 216.368 99.1033 216.437 98.8538C216.505 98.6043 216.621 98.3767 216.78 98.1846C218.032 96.6727 219.408 95.2824 220.896 94.0272C220.993 93.9439 221.071 93.8385 221.124 93.7176C221.177 93.5967 221.204 93.463 221.204 93.3251C221.204 93.1871 221.176 93.048 221.123 92.9166C221.07 92.7851 220.992 92.6643 220.894 92.5618L220.742 92.4C220.03 91.6659 219.108 91.2123 218.155 91.1278C217.203 91.0433 216.289 91.3339 215.591 91.943L209.265 97.4782C208.723 97.9503 208.339 98.5925 208.161 99.326C207.982 100.06 208.017 100.853 208.26 101.608L217.685 130.603C217.981 131.514 218.567 132.315 219.337 132.864C220.107 133.413 221.012 133.673 221.89 133.599L238.964 132.248C239.478 132.208 239.968 132.057 240.405 131.803C240.842 131.549 241.217 131.199 241.505 130.773C241.794 130.347 241.991 129.855 242.084 129.328C242.177 128.8 242.164 128.247 242.046 127.703L241.496 125.22C241.463 125.072 241.399 124.93 241.309 124.805C241.218 124.681 241.104 124.576 240.975 124.5C240.846 124.425 240.705 124.379 240.562 124.367C240.42 124.355 240.28 124.377 240.152 124.431C238.086 125.314 235.929 125.984 233.706 126.433C233.237 126.534 232.731 126.439 232.291 126.167C231.852 125.896 231.511 125.468 231.337 124.971C231.251 124.707 231.215 124.432 231.233 124.164C231.251 123.896 231.321 123.639 231.44 123.411C231.559 123.182 231.723 122.986 231.923 122.835C232.123 122.684 232.355 122.58 232.603 122.531C239.637 121.039 245.883 117.313 250.536 111.832C250.697 111.637 250.898 111.482 251.126 111.378C251.353 111.274 251.604 111.223 251.861 111.227C252.118 111.231 252.376 111.29 252.621 111.402C252.865 111.513 253.09 111.674 253.281 111.874C253.638 112.264 253.853 112.767 253.883 113.284C253.914 113.8 253.756 114.291 253.444 114.656C251.994 116.398 250.38 117.979 248.623 119.377C248.514 119.463 248.429 119.576 248.372 119.707C248.314 119.838 248.288 119.984 248.293 120.134C248.298 120.284 248.336 120.434 248.403 120.572C248.47 120.711 248.564 120.835 248.679 120.934L250.603 122.597C251.026 122.959 251.506 123.233 252.015 123.401C252.523 123.57 253.05 123.63 253.561 123.579C254.073 123.527 254.559 123.364 254.99 123.1C255.421 122.836 255.787 122.477 256.067 122.044L265.364 107.66C265.846 106.922 266.047 106.002 265.93 105.064C265.813 104.126 265.386 103.23 264.725 102.536ZM231.189 115.886C230.722 116.164 230.174 116.282 229.613 116.225C229.052 116.167 228.504 115.937 228.038 115.563C227.572 115.188 227.21 114.687 226.996 114.122C226.783 113.557 226.728 112.954 226.839 112.389C226.949 111.824 227.22 111.322 227.618 110.947C228.015 110.572 228.521 110.341 229.072 110.283C229.622 110.224 230.192 110.342 230.71 110.62C231.228 110.898 231.67 111.324 231.981 111.844C232.397 112.543 232.548 113.361 232.399 114.118C232.251 114.876 231.816 115.512 231.189 115.886ZM245.359 107.431C244.892 107.71 244.344 107.828 243.783 107.77C243.222 107.713 242.674 107.482 242.208 107.108C241.742 106.734 241.38 106.232 241.166 105.668C240.953 105.103 240.898 104.499 241.008 103.934C241.119 103.369 241.39 102.867 241.788 102.492C242.185 102.117 242.691 101.886 243.242 101.828C243.792 101.77 244.362 101.887 244.88 102.165C245.398 102.443 245.84 102.869 246.151 103.39C246.567 104.088 246.718 104.906 246.569 105.664C246.421 106.422 245.986 107.057 245.359 107.431Z" fill="url(#paint1_linear_24_788)"/>
</g>
<defs>
<linearGradient id="paint0_linear_24_788" x1="-4.53734" y1="7.85712" x2="30.3623" y2="36.4585" gradientUnits="userSpaceOnUse">
<stop stop-color="#262629"/>
<stop offset="1" stop-color="#2B2B2E"/>
</linearGradient>
<linearGradient id="paint1_linear_24_788" x1="214.619" y1="96.6285" x2="249.519" y2="125.23" gradientUnits="userSpaceOnUse">
<stop stop-color="#262629"/>
<stop offset="1" stop-color="#2B2B2E"/>
</linearGradient>
<clipPath id="clip0_24_788">
<rect width="258" height="125" fill="white"/>
</clipPath>
</defs>
</svg>
