<svg width="93" height="197" viewBox="0 0 93 197" fill="none" xmlns="http://www.w3.org/2000/svg">
<g filter="url(#filter0_df_46_824)">
<path d="M45.6812 106.724L41.9907 120.815C41.6936 121.949 42.014 123.156 42.8345 123.994L53.1325 134.508C54.5047 135.909 54.3781 138.186 52.859 139.426L38.7207 150.968C37.4474 152.007 37.1212 153.819 37.9521 155.237L45.6812 168.43" stroke="#00CCA9" stroke-width="2.50162"/>
</g>
<g filter="url(#filter1_bi_46_824)">
<path d="M41.5078 10.3197C43.8638 7.21263 48.5348 7.21262 50.8908 10.3197L56.1783 17.293C57.0184 18.4011 58.3911 18.9696 59.7687 18.7802L68.4384 17.5882C72.3014 17.0571 75.6043 20.36 75.0731 24.2229L73.8811 32.8926C73.6917 34.2702 74.2603 35.6429 75.3683 36.4831L82.3416 41.7705C85.4487 44.1265 85.4487 48.7975 82.3416 51.1535L75.3683 56.441C74.2603 57.2812 73.6917 58.6538 73.8811 60.0315L75.0731 68.7011C75.6043 72.5641 72.3014 75.867 68.4384 75.3358L59.7687 74.1438C58.3911 73.9544 57.0184 74.523 56.1783 75.6311L50.8908 82.6043C48.5348 85.7114 43.8638 85.7114 41.5078 82.6043L36.2203 75.6311C35.3801 74.523 34.0075 73.9544 32.6299 74.1438L23.9602 75.3358C20.0972 75.867 16.7943 72.5641 17.3255 68.7011L18.5175 60.0315C18.7069 58.6538 18.1383 57.2812 17.0303 56.441L10.057 51.1535C6.94991 48.7975 6.94991 44.1265 10.057 41.7705L17.0303 36.4831C18.1383 35.6429 18.7069 34.2702 18.5175 32.8926L17.3255 24.2229C16.7943 20.36 20.0972 17.0571 23.9602 17.5882L32.6299 18.7802C34.0075 18.9696 35.3801 18.4011 36.2203 17.293L41.5078 10.3197Z" fill="#00CCA9" fill-opacity="0.07"/>
<path d="M50.5075 10.6104L55.795 17.5836C56.7402 18.8302 58.2844 19.4698 59.8343 19.2568L68.5039 18.0647C72.0513 17.577 75.0843 20.61 74.5966 24.1574L73.4046 32.8271C73.1915 34.3769 73.8311 35.9211 75.0777 36.8664L82.0509 42.1538C84.9042 44.3173 84.9042 48.6067 82.0509 50.7702L75.0777 56.0577C73.8311 57.0029 73.1915 58.5471 73.4046 60.097L74.5966 68.7666C75.0843 72.314 72.0513 75.3471 68.5039 74.8593L59.8343 73.6673C58.2844 73.4542 56.7402 74.0938 55.795 75.3404L50.5075 82.3137C48.344 85.1669 44.0546 85.1669 41.8911 82.3137L36.6036 75.3404C35.6584 74.0938 34.1142 73.4542 32.5643 73.6673L23.8947 74.8593C20.3473 75.3471 17.3143 72.314 17.802 68.7666L18.994 60.097C19.2071 58.5471 18.5675 57.0029 17.3209 56.0577L10.3476 50.7702C7.49439 48.6067 7.49439 44.3173 10.3476 42.1538L17.3209 36.8664C18.5675 35.9211 19.2071 34.3769 18.994 32.8271L17.802 24.1574C17.3143 20.61 20.3473 17.577 23.8947 18.0647L32.5643 19.2568C34.1142 19.4698 35.6584 18.8302 36.6036 17.5836L41.8911 10.6104C44.0546 7.7571 48.344 7.7571 50.5075 10.6104Z" stroke="url(#paint0_linear_46_824)" stroke-width="0.962034"/>
</g>
<path fill-rule="evenodd" clip-rule="evenodd" d="M38.5024 42.6139C36.3772 42.6139 34.6543 40.891 34.6543 38.7657C34.6543 36.6405 36.3772 34.9176 38.5024 34.9176C40.6277 34.9176 42.3506 36.6405 42.3506 38.7657C42.3506 40.891 40.6277 42.6139 38.5024 42.6139ZM56.616 41.4868L41.2235 56.8793C39.7207 58.3821 37.2842 58.3821 35.7814 56.8793C34.2786 55.3765 34.2786 52.94 35.7814 51.4372L51.1739 36.0447C52.6767 34.5419 55.1132 34.5419 56.616 36.0447C58.1188 37.5475 58.1188 39.984 56.616 41.4868ZM50.0468 54.1583C50.0468 56.2836 51.7697 58.0064 53.895 58.0064C56.0202 58.0064 57.7431 56.2836 57.7431 54.1583C57.7431 52.033 56.0202 50.3102 53.895 50.3102C51.7697 50.3102 50.0468 52.033 50.0468 54.1583Z" fill="#00CCA9"/>
<defs>
<filter id="filter0_df_46_824" x="8.80908" y="78.9723" width="73.9614" height="117.525" filterUnits="userSpaceOnUse" color-interpolation-filters="sRGB">
<feFlood flood-opacity="0" result="BackgroundImageFix"/>
<feColorMatrix in="SourceAlpha" type="matrix" values="0 0 0 0 0 0 0 0 0 0 0 0 0 0 0 0 0 0 127 0" result="hardAlpha"/>
<feOffset/>
<feGaussianBlur stdDeviation="13.7172"/>
<feComposite in2="hardAlpha" operator="out"/>
<feColorMatrix type="matrix" values="0 0 0 0 0 0 0 0 0 0.8 0 0 0 0 0.662745 0 0 0 0.8 0"/>
<feBlend mode="normal" in2="BackgroundImageFix" result="effect1_dropShadow_46_824"/>
<feBlend mode="normal" in="SourceGraphic" in2="effect1_dropShadow_46_824" result="shape"/>
<feGaussianBlur stdDeviation="2.50162" result="effect2_foregroundBlur_46_824"/>
</filter>
<filter id="filter1_bi_46_824" x="-6.70383" y="-6.44111" width="105.806" height="105.806" filterUnits="userSpaceOnUse" color-interpolation-filters="sRGB">
<feFlood flood-opacity="0" result="BackgroundImageFix"/>
<feGaussianBlur in="BackgroundImageFix" stdDeviation="7.21526"/>
<feComposite in2="SourceAlpha" operator="in" result="effect1_backgroundBlur_46_824"/>
<feBlend mode="normal" in="SourceGraphic" in2="effect1_backgroundBlur_46_824" result="shape"/>
<feColorMatrix in="SourceAlpha" type="matrix" values="0 0 0 0 0 0 0 0 0 0 0 0 0 0 0 0 0 0 127 0" result="hardAlpha"/>
<feOffset/>
<feGaussianBlur stdDeviation="7.21526"/>
<feComposite in2="hardAlpha" operator="arithmetic" k2="-1" k3="1"/>
<feColorMatrix type="matrix" values="0 0 0 0 0 0 0 0 0 0.8 0 0 0 0 0.662745 0 0 0 0.1 0"/>
<feBlend mode="normal" in2="shape" result="effect2_innerShadow_46_824"/>
</filter>
<linearGradient id="paint0_linear_46_824" x1="12.5358" y1="9.23045" x2="64.6287" y2="97.1984" gradientUnits="userSpaceOnUse">
<stop stop-color="#00CCA9" stop-opacity="0.1"/>
<stop offset="1" stop-color="white" stop-opacity="0.1"/>
<stop offset="1" stop-color="#00CCA9" stop-opacity="0"/>
</linearGradient>
</defs>
</svg>
