<svg width="94" height="193" viewBox="0 0 94 193" fill="none" xmlns="http://www.w3.org/2000/svg">
<g filter="url(#filter0_df_46_826)">
<path d="M46.6502 102.724L42.9597 116.815C42.6626 117.949 42.983 119.156 43.8035 119.994L54.1015 130.508C55.4737 131.909 55.3471 134.186 53.828 135.426L39.6897 146.968C38.4164 148.007 38.0902 149.819 38.9211 151.237L46.6502 164.43" stroke="#FE4CB4" stroke-width="2.50162"/>
</g>
<path opacity="0.7" fill-rule="evenodd" clip-rule="evenodd" d="M20.7077 79.2661C24.0003 80.9438 28.3107 80.9438 36.9313 80.9438L56.9416 80.9438C65.5622 80.9438 69.8726 80.9438 73.1652 79.2661C75.2286 78.2148 77.0171 76.7173 78.4087 74.8957C77.6731 75.4578 76.8846 75.9552 76.0513 76.3798C72.7587 78.0575 68.4484 78.0575 59.8277 78.0575L39.8174 78.0575C31.1968 78.0575 26.8865 78.0575 23.5938 76.3798C20.6975 74.904 18.3428 72.5493 16.867 69.653C15.1893 66.3603 15.1893 62.05 15.1893 53.4294L15.1893 33.4191C15.1893 24.7985 15.1893 20.4881 16.867 17.1955C17.2914 16.3626 17.7885 15.5744 18.3503 14.8391C16.5292 16.2306 15.032 18.0189 13.9809 20.0819C12.3032 23.3745 12.3032 27.6848 12.3032 36.3054L12.3032 56.3158C12.3032 64.9364 12.3032 69.2467 13.9809 72.5394C15.4566 75.4357 17.8114 77.7904 20.7077 79.2661Z" fill="#FE4CB4"/>
<path opacity="0.7" fill-rule="evenodd" clip-rule="evenodd" d="M32.671 52.8796C31.1682 51.3768 31.1682 48.9403 32.671 47.4375L44.2154 35.8931C45.7182 34.3903 48.1547 34.3903 49.6575 35.8931L61.2019 47.4375C62.7047 48.9403 62.7047 51.3768 61.2019 52.8796C59.6992 54.3824 57.2626 54.3824 55.7599 52.8796L46.9365 44.0563L38.1131 52.8796C36.6103 54.3824 34.1738 54.3824 32.671 52.8796Z" fill="#FE4CB4"/>
<g filter="url(#filter1_bi_46_826)">
<path d="M36.9313 80.9437C28.3107 80.9437 24.0003 80.9437 20.7077 79.266C17.8114 77.7903 15.4566 75.4355 13.9809 72.5392C12.3032 69.2466 12.3032 64.9362 12.3032 56.3156L12.3032 36.3053C12.3032 27.6847 12.3032 23.3743 13.9809 20.0817C15.4566 17.1854 17.8114 14.8306 20.7077 13.3549C24.0003 11.6772 28.3107 11.6772 36.9313 11.6772L56.9416 11.6772C65.5622 11.6772 69.8726 11.6772 73.1652 13.3549C76.0615 14.8306 78.4163 17.1854 79.892 20.0817C81.5697 23.3743 81.5697 27.6847 81.5697 36.3053L81.5697 56.3156C81.5697 64.9362 81.5697 69.2466 79.892 72.5392C78.4163 75.4355 76.0615 77.7903 73.1652 79.266C69.8726 80.9437 65.5622 80.9437 56.9416 80.9437L36.9313 80.9437Z" fill="#FE4CB4" fill-opacity="0.07"/>
<path d="M12.7842 56.3156L12.7842 36.3053C12.7842 31.987 12.7846 28.7773 12.9924 26.2347C13.1996 23.6977 13.611 21.8673 14.4095 20.3001C15.8391 17.4943 18.1203 15.2131 20.9261 13.7835C22.4933 12.985 24.3237 12.5736 26.8607 12.3664C29.4033 12.1586 32.613 12.1582 36.9313 12.1582L56.9416 12.1582C61.2599 12.1582 64.4696 12.1586 67.0122 12.3664C69.5492 12.5736 71.3796 12.985 72.9468 13.7835C75.7526 15.2131 78.0338 17.4943 79.4634 20.3001C80.2619 21.8673 80.6733 23.6977 80.8805 26.2347C81.0883 28.7773 81.0887 31.987 81.0887 36.3053L81.0887 56.3156C81.0887 60.6339 81.0883 63.8436 80.8805 66.3862C80.6733 68.9232 80.2619 70.7536 79.4634 72.3208C78.0338 75.1266 75.7526 77.4078 72.9468 78.8374C71.3796 79.6359 69.5492 80.0473 67.0122 80.2545C64.4696 80.4623 61.2599 80.4627 56.9416 80.4627L36.9313 80.4627C32.613 80.4627 29.4033 80.4623 26.8607 80.2545C24.3237 80.0473 22.4933 79.6359 20.9261 78.8374C18.1203 77.4078 15.8391 75.1266 14.4095 72.3208C13.611 70.7536 13.1996 68.9232 12.9924 66.3862C12.7846 63.8436 12.7842 60.6339 12.7842 56.3156Z" stroke="url(#paint0_linear_46_826)" stroke-width="0.962034"/>
</g>
<path fill-rule="evenodd" clip-rule="evenodd" d="M32.6709 52.8796C31.1681 51.3768 31.1681 48.9403 32.6709 47.4375L44.2153 35.8931C45.7181 34.3903 48.1546 34.3903 49.6574 35.8931L61.2018 47.4375C62.7046 48.9403 62.7046 51.3768 61.2018 52.8796C59.699 54.3824 57.2625 54.3824 55.7597 52.8796L46.9364 44.0563L38.113 52.8796C36.6102 54.3824 34.1737 54.3824 32.6709 52.8796Z" fill="#FE4CB4"/>
<defs>
<filter id="filter0_df_46_826" x="9.77807" y="74.9723" width="73.9614" height="117.525" filterUnits="userSpaceOnUse" color-interpolation-filters="sRGB">
<feFlood flood-opacity="0" result="BackgroundImageFix"/>
<feColorMatrix in="SourceAlpha" type="matrix" values="0 0 0 0 0 0 0 0 0 0 0 0 0 0 0 0 0 0 127 0" result="hardAlpha"/>
<feOffset/>
<feGaussianBlur stdDeviation="13.7172"/>
<feComposite in2="hardAlpha" operator="out"/>
<feColorMatrix type="matrix" values="0 0 0 0 0.996078 0 0 0 0 0.298039 0 0 0 0 0.705882 0 0 0 0.8 0"/>
<feBlend mode="normal" in2="BackgroundImageFix" result="effect1_dropShadow_46_826"/>
<feBlend mode="normal" in="SourceGraphic" in2="effect1_dropShadow_46_826" result="shape"/>
<feGaussianBlur stdDeviation="2.50162" result="effect2_foregroundBlur_46_826"/>
</filter>
<filter id="filter1_bi_46_826" x="-2.12729" y="-2.75329" width="98.1275" height="98.1275" filterUnits="userSpaceOnUse" color-interpolation-filters="sRGB">
<feFlood flood-opacity="0" result="BackgroundImageFix"/>
<feGaussianBlur in="BackgroundImageFix" stdDeviation="7.21526"/>
<feComposite in2="SourceAlpha" operator="in" result="effect1_backgroundBlur_46_826"/>
<feBlend mode="normal" in="SourceGraphic" in2="effect1_backgroundBlur_46_826" result="shape"/>
<feColorMatrix in="SourceAlpha" type="matrix" values="0 0 0 0 0 0 0 0 0 0 0 0 0 0 0 0 0 0 127 0" result="hardAlpha"/>
<feOffset/>
<feGaussianBlur stdDeviation="7.21526"/>
<feComposite in2="hardAlpha" operator="arithmetic" k2="-1" k3="1"/>
<feColorMatrix type="matrix" values="0 0 0 0 0.666667 0 0 0 0 0.380392 0 0 0 0 0.94902 0 0 0 0.1 0"/>
<feBlend mode="normal" in2="shape" result="effect2_innerShadow_46_826"/>
</filter>
<linearGradient id="paint0_linear_46_826" x1="13.4204" y1="76.6145" x2="92.6095" y2="29.7202" gradientUnits="userSpaceOnUse">
<stop stop-color="#FE4CB4" stop-opacity="0.1"/>
<stop offset="1" stop-color="#FE4CB4" stop-opacity="0"/>
</linearGradient>
</defs>
</svg>
