<svg width="1032" height="128" viewBox="0 0 1032 128" fill="none" xmlns="http://www.w3.org/2000/svg">
<g clip-path="url(#clip0_1_123)">
<path d="M119.846 28.2535C119.118 25.4047 117.723 22.7699 115.776 20.5665C113.83 18.363 111.387 16.654 108.649 15.5805C82.1597 5.34935 39.9988 5.44208 37.6806 5.44208C35.3624 5.44208 -6.79853 5.34935 -33.2882 15.5805C-36.0255 16.654 -38.4684 18.363 -40.4152 20.5665C-42.3621 22.7699 -43.7571 25.4047 -44.4852 28.2535C-46.4866 35.9654 -48.8667 50.0603 -48.8667 73.4435C-48.8667 96.8267 -46.4866 110.922 -44.4852 118.634C-43.7582 121.484 -42.3637 124.12 -40.4168 126.325C-38.4699 128.53 -36.0264 130.24 -33.2882 131.314C-7.91128 141.105 31.8077 141.445 37.1706 141.445H38.1906C43.5535 141.445 83.2957 141.105 108.649 131.314C111.388 130.24 113.831 128.53 115.778 126.325C117.725 124.12 119.119 121.484 119.846 118.634C121.848 110.906 124.228 96.8267 124.228 73.4435C124.228 50.0603 121.848 35.9654 119.846 28.2535ZM64.1239 76.0168L27.0322 100.745C26.5666 101.055 26.0253 101.234 25.4663 101.261C24.9072 101.288 24.3513 101.163 23.8578 100.898C23.3643 100.634 22.9519 100.241 22.6644 99.7607C22.377 99.2804 22.2254 98.7311 22.2257 98.1713V48.7157C22.2254 48.156 22.377 47.6067 22.6644 47.1264C22.9519 46.6461 23.3643 46.2529 23.8578 45.9887C24.3513 45.7245 24.9072 45.5993 25.4663 45.6264C26.0253 45.6535 26.5666 45.8318 27.0322 46.1425L64.1239 70.8703C64.5479 71.1524 64.8956 71.535 65.136 71.9839C65.3765 72.4328 65.5024 72.9342 65.5024 73.4435C65.5024 73.9528 65.3765 74.4542 65.136 74.9031C64.8956 75.352 64.5479 75.7346 64.1239 76.0168Z" fill="url(#paint0_linear_1_123)"/>
<path d="M950.145 28.2535C949.417 25.4047 948.022 22.7699 946.075 20.5665C944.128 18.363 941.685 16.654 938.948 15.5805C912.458 5.34935 870.297 5.44208 867.979 5.44208C865.661 5.44208 823.5 5.34935 797.01 15.5805C794.273 16.654 791.83 18.363 789.883 20.5665C787.936 22.7699 786.541 25.4047 785.813 28.2535C783.812 35.9654 781.432 50.0603 781.432 73.4435C781.432 96.8267 783.812 110.922 785.813 118.634C786.54 121.484 787.935 124.12 789.882 126.325C791.829 128.53 794.272 130.24 797.01 131.314C822.387 141.105 862.106 141.445 867.469 141.445H868.489C873.852 141.445 913.594 141.105 938.948 131.314C941.686 130.24 944.13 128.53 946.077 126.325C948.023 124.12 949.418 121.484 950.145 118.634C952.146 110.906 954.526 96.8267 954.526 73.4435C954.526 50.0603 952.146 35.9654 950.145 28.2535ZM894.422 76.0168L857.331 100.745C856.865 101.055 856.324 101.234 855.765 101.261C855.206 101.288 854.65 101.163 854.156 100.898C853.663 100.634 853.25 100.241 852.963 99.7607C852.676 99.2804 852.524 98.7311 852.524 98.1713V48.7157C852.524 48.156 852.676 47.6067 852.963 47.1264C853.25 46.6461 853.663 46.2529 854.156 45.9887C854.65 45.7245 855.206 45.5993 855.765 45.6264C856.324 45.6535 856.865 45.8318 857.331 46.1425L894.422 70.8703C894.846 71.1524 895.194 71.535 895.435 71.9839C895.675 72.4328 895.801 72.9342 895.801 73.4435C895.801 73.9528 895.675 74.4542 895.435 74.9031C895.194 75.352 894.846 75.7346 894.422 76.0168Z" fill="url(#paint1_linear_1_123)"/>
<path d="M204.876 80.7022C204.588 79.5749 204.036 78.5322 203.265 77.6603C202.495 76.7883 201.528 76.112 200.445 75.6872C189.963 71.6385 173.279 71.6752 172.361 71.6752C171.444 71.6752 154.76 71.6385 144.277 75.6872C143.194 76.112 142.227 76.7883 141.457 77.6603C140.687 78.5322 140.135 79.5749 139.846 80.7022C139.054 83.754 138.113 89.3316 138.113 98.5849C138.113 107.838 139.054 113.416 139.846 116.468C140.134 117.595 140.686 118.639 141.456 119.511C142.227 120.384 143.194 121.06 144.277 121.486C154.32 125.36 170.037 125.495 172.159 125.495H172.563C174.685 125.495 190.412 125.36 200.445 121.486C201.529 121.06 202.496 120.384 203.266 119.511C204.036 118.639 204.588 117.595 204.876 116.468C205.668 113.41 206.61 107.838 206.61 98.5849C206.61 89.3316 205.668 83.754 204.876 80.7022ZM182.825 99.6032L168.147 109.388C167.963 109.511 167.749 109.582 167.528 109.593C167.306 109.603 167.087 109.554 166.891 109.449C166.696 109.345 166.533 109.189 166.419 108.999C166.305 108.809 166.245 108.592 166.245 108.37V88.7995C166.245 88.578 166.305 88.3607 166.419 88.1706C166.533 87.9805 166.696 87.8249 166.891 87.7204C167.087 87.6159 167.306 87.5663 167.528 87.577C167.749 87.5877 167.963 87.6583 168.147 87.7813L182.825 97.5666C182.993 97.6782 183.131 97.8296 183.226 98.0073C183.321 98.1849 183.371 98.3833 183.371 98.5849C183.371 98.7864 183.321 98.9848 183.226 99.1625C183.131 99.3401 182.993 99.4915 182.825 99.6032Z" fill="url(#paint2_linear_1_123)"/>
<path d="M1035.17 80.7022C1034.89 79.5749 1034.33 78.5322 1033.56 77.6603C1032.79 76.7883 1031.83 76.112 1030.74 75.6872C1020.26 71.6385 1003.58 71.6752 1002.66 71.6752C1001.74 71.6752 985.058 71.6385 974.576 75.6872C973.493 76.112 972.526 76.7883 971.756 77.6603C970.985 78.5322 970.433 79.5749 970.145 80.7022C969.353 83.754 968.411 89.3316 968.411 98.5849C968.411 107.838 969.353 113.416 970.145 116.468C970.433 117.595 970.985 118.639 971.755 119.511C972.525 120.384 973.492 121.06 974.576 121.486C984.618 125.36 1000.34 125.495 1002.46 125.495H1002.86C1004.98 125.495 1020.71 125.36 1030.74 121.486C1031.83 121.06 1032.79 120.384 1033.56 119.511C1034.34 118.639 1034.89 117.595 1035.17 116.468C1035.97 113.41 1036.91 107.838 1036.91 98.5849C1036.91 89.3316 1035.97 83.754 1035.17 80.7022ZM1013.12 99.6032L998.446 109.388C998.262 109.511 998.048 109.582 997.826 109.593C997.605 109.603 997.385 109.554 997.19 109.449C996.995 109.345 996.831 109.189 996.718 108.999C996.604 108.809 996.544 108.592 996.544 108.37V88.7995C996.544 88.578 996.604 88.3607 996.718 88.1706C996.831 87.9805 996.995 87.8249 997.19 87.7204C997.385 87.6159 997.605 87.5663 997.826 87.577C998.048 87.5877 998.262 87.6583 998.446 87.7813L1013.12 97.5666C1013.29 97.6782 1013.43 97.8296 1013.52 98.0073C1013.62 98.1849 1013.67 98.3833 1013.67 98.5849C1013.67 98.7864 1013.62 98.9848 1013.52 99.1625C1013.43 99.3401 1013.29 99.4915 1013.12 99.6032Z" fill="url(#paint3_linear_1_123)"/>
<path d="M171.565 29.2764C171.432 28.7584 171.178 28.2794 170.825 27.8787C170.471 27.4781 170.026 27.1674 169.529 26.9722C164.712 25.112 157.047 25.1289 156.625 25.1289C156.204 25.1289 148.538 25.112 143.722 26.9722C143.224 27.1674 142.78 27.4781 142.426 27.8787C142.072 28.2794 141.818 28.7584 141.686 29.2764C141.322 30.6786 140.889 33.2413 140.889 37.4928C140.889 41.7442 141.322 44.3069 141.686 45.7091C141.818 46.2273 142.072 46.7067 142.426 47.1076C142.78 47.5084 143.224 47.8194 143.722 48.0147C148.336 49.7948 155.557 49.8566 156.533 49.8566H156.718C157.693 49.8566 164.919 49.7948 169.529 48.0147C170.027 47.8194 170.471 47.5084 170.825 47.1076C171.179 46.7067 171.432 46.2273 171.565 45.7091C171.928 44.3041 172.361 41.7442 172.361 37.4928C172.361 33.2413 171.928 30.6786 171.565 29.2764ZM161.433 37.9606L154.689 42.4566C154.605 42.5131 154.506 42.5455 154.404 42.5504C154.303 42.5553 154.202 42.5326 154.112 42.4845C154.022 42.4365 153.947 42.365 153.895 42.2777C153.843 42.1904 153.815 42.0905 153.815 41.9887V32.9968C153.815 32.895 153.843 32.7951 153.895 32.7078C153.947 32.6205 154.022 32.549 154.112 32.501C154.202 32.4529 154.303 32.4302 154.404 32.4351C154.506 32.44 154.605 32.4724 154.689 32.5289L161.433 37.0249C161.51 37.0762 161.573 37.1457 161.617 37.2274C161.661 37.309 161.684 37.4002 161.684 37.4928C161.684 37.5853 161.661 37.6765 161.617 37.7581C161.573 37.8398 161.51 37.9093 161.433 37.9606Z" fill="url(#paint4_linear_1_123)"/>
<path d="M1001.86 29.2764C1001.73 28.7584 1001.48 28.2794 1001.12 27.8787C1000.77 27.4781 1000.32 27.1674 999.827 26.9722C995.011 25.112 987.345 25.1289 986.924 25.1289C986.502 25.1289 978.837 25.112 974.02 26.9722C973.523 27.1674 973.079 27.4781 972.725 27.8787C972.371 28.2794 972.117 28.7584 971.985 29.2764C971.621 30.6786 971.188 33.2413 971.188 37.4928C971.188 41.7442 971.621 44.3069 971.985 45.7091C972.117 46.2273 972.37 46.7067 972.724 47.1076C973.078 47.5084 973.523 47.8194 974.02 48.0147C978.634 49.7948 985.856 49.8566 986.831 49.8566H987.017C987.992 49.8566 995.218 49.7948 999.827 48.0147C1000.33 47.8194 1000.77 47.5084 1001.12 47.1076C1001.48 46.7067 1001.73 46.2273 1001.86 45.7091C1002.23 44.3041 1002.66 41.7442 1002.66 37.4928C1002.66 33.2413 1002.23 30.6786 1001.86 29.2764ZM991.732 37.9606L984.988 42.4566C984.903 42.5131 984.805 42.5455 984.703 42.5504C984.601 42.5553 984.5 42.5326 984.411 42.4845C984.321 42.4365 984.246 42.365 984.194 42.2777C984.141 42.1904 984.114 42.0905 984.114 41.9887V32.9968C984.114 32.895 984.141 32.7951 984.194 32.7078C984.246 32.6205 984.321 32.549 984.411 32.501C984.5 32.4529 984.601 32.4302 984.703 32.4351C984.805 32.44 984.903 32.4724 984.988 32.5289L991.732 37.0249C991.809 37.0762 991.872 37.1457 991.916 37.2274C991.959 37.309 991.982 37.4002 991.982 37.4928C991.982 37.5853 991.959 37.6765 991.916 37.7581C991.872 37.8398 991.809 37.9093 991.732 37.9606Z" fill="url(#paint5_linear_1_123)"/>
</g>
<defs>
<linearGradient id="paint0_linear_1_123" x1="-18.7834" y1="14.7484" x2="84.8882" y2="146.652" gradientUnits="userSpaceOnUse">
<stop stop-color="#26262A"/>
<stop offset="1" stop-color="#2B2B2D"/>
</linearGradient>
<linearGradient id="paint1_linear_1_123" x1="811.515" y1="14.7484" x2="915.187" y2="146.652" gradientUnits="userSpaceOnUse">
<stop stop-color="#26262A"/>
<stop offset="1" stop-color="#2B2B2D"/>
</linearGradient>
<linearGradient id="paint2_linear_1_123" x1="150.017" y1="75.3579" x2="191.042" y2="127.555" gradientUnits="userSpaceOnUse">
<stop stop-color="#26262A"/>
<stop offset="1" stop-color="#2B2B2D"/>
</linearGradient>
<linearGradient id="paint3_linear_1_123" x1="980.316" y1="75.3579" x2="1021.34" y2="127.555" gradientUnits="userSpaceOnUse">
<stop stop-color="#26262A"/>
<stop offset="1" stop-color="#2B2B2D"/>
</linearGradient>
<linearGradient id="paint4_linear_1_123" x1="146.359" y1="26.8209" x2="165.208" y2="50.8034" gradientUnits="userSpaceOnUse">
<stop stop-color="#26262A"/>
<stop offset="1" stop-color="#2B2B2D"/>
</linearGradient>
<linearGradient id="paint5_linear_1_123" x1="976.658" y1="26.8209" x2="995.507" y2="50.8034" gradientUnits="userSpaceOnUse">
<stop stop-color="#26262A"/>
<stop offset="1" stop-color="#2B2B2D"/>
</linearGradient>
<clipPath id="clip0_1_123">
<rect width="1031.16" height="126.813" fill="white" transform="translate(0.192139 0.401062)"/>
</clipPath>
</defs>
</svg>
